PathFileType	4	(X/Y/Z)	/Users/niels/Desktop/University/Third Semester/Perception and Action/Exam/Gymnastics Motion Tracking/Code for Gym Tracking/Analyzed Data/Webcam_Backflip/id2_5_pure_Sports2D/id2_5_pure_Sports2D_px_person00.trc
DataRate	CameraRate	NumFrames	NumMarkers	Units	OrigDataRate	OrigDataStartFrame	OrigNumFrames
29.874476987447697	29.874476987447697	10	22	m	29.874476987447697	149	239
Frame#	Time	Hip			RHip			RKnee			RAnkle			RBigToe			RSmallToe			RHeel			LHip			LKnee			LAnkle			LBigToe			LSmallToe			LHeel			Neck			Head			Nose			RShoulder			RElbow			RWrist			LShoulder			LElbow			LWrist		
		X1	Y1	Z1	X2	Y2	Z2	X3	Y3	Z3	X4	Y4	Z4	X5	Y5	Z5	X6	Y6	Z6	X7	Y7	Z7	X8	Y8	Z8	X9	Y9	Z9	X10	Y10	Z10	X11	Y11	Z11	X12	Y12	Z12	X13	Y13	Z13	X14	Y14	Z14	X15	Y15	Z15	X16	Y16	Z16	X17	Y17	Z17	X18	Y18	Z18	X19	Y19	Z19	X20	Y20	Z20	X21	Y21	Z21	X22	Y22	Z22
149	4.987535014005602	0.78995781988621	-0.5766873801573166	0.0	0.7870190602456504	-0.5746672482694374	0.0	0.7839540726362163	-0.6824267119351751	0.0	0.7647971881151818	-0.8021046936288094	0.0	0.8019243650079251	-0.8201287223225942	0.0	0.7880702637403884	-0.8239391286694017	0.0	0.755760992043345	-0.8172278369878676	0.0	0.7984741221174584	-0.5744953603049388	0.0	0.7985783007840973	-0.6801899628253677	0.0	0.7821332378562134	-0.7889233438322998	0.0	0.8195542613532003	-0.8068266336450532	0.0	0.8175869871299796	-0.8041089844202655	0.0	0.7776326260314002	-0.8049798446394123	0.0	0.7887770965927873	-0.41319735912893024	0.0	0.8034724622718886	-0.3407684365075279	0.0	0.823069208184772	-0.3778296993541492	0.0	0.7754524362388409	-0.43647636474216517	0.0	0.7765028938207051	-0.5155807612925299	0.0	0.8209120444860692	-0.5770355450401167	0.0	0.7873942150397445	-0.434974557326641	0.0	0.7843582321992294	-0.5082421815541129	0.0	0.8135651856926769	-0.566856512247772	0.0
150	5.0210084033613445	0.7898562153931887	-0.5806526288010078	0.0	0.7867935050481772	-0.5786484357295154	0.0	0.7835730030304908	-0.6859096360411613	0.0	0.7645748875263894	-0.8053478329088154	0.0	0.8014211081668584	-0.8236622073951405	0.0	0.787475967477799	-0.8275324855355578	0.0	0.7555934797990213	-0.8204044838766195	0.0	0.7986791776837585	-0.5786553217427625	0.0	0.7985985966049998	-0.6840376754757791	0.0	0.7819035753605804	-0.7927505375718149	0.0	0.8201335482064628	-0.809628586989817	0.0	0.8175313679077922	-0.8069500451099653	0.0	0.7774626457827426	-0.8086466718835287	0.0	0.7892377177876242	-0.41664580047665345	0.0	0.8040685019643922	-0.34481602434250574	0.0	0.823560549243515	-0.38173798894993766	0.0	0.7759281145363537	-0.44020998697184005	0.0	0.7764631006560561	-0.5196098888749924	0.0	0.8175508175213616	-0.5827168408633294	0.0	0.7879242821210868	-0.4388414918801901	0.0	0.7847064438791153	-0.5124874313555072	0.0	0.8120967786198953	-0.572176362867528	0.0
151	5.054481792717087	0.790061674918831	-0.5832178887743252	0.0	0.7867491044588342	-0.5813587264037243	0.0	0.7831895995215624	-0.6882516387094881	0.0	0.7642401430756175	-0.8073516592545862	0.0	0.8006565891154902	-0.826000782038941	0.0	0.7865231210211796	-0.8298397254711544	0.0	0.7552558395525005	-0.8223777580949696	0.0	0.7993200903803038	-0.5815671755407925	0.0	0.798626661285354	-0.6868082376023563	0.0	0.7815762461746926	-0.7952232049022645	0.0	0.8203175899815328	-0.8111818928667677	0.0	0.8172193523280799	-0.8084582653662986	0.0	0.7772415538004265	-0.810944648388695	0.0	0.7896945791403772	-0.4187972539816081	0.0	0.8046070870549448	-0.34753446249770553	0.0	0.8240868758965822	-0.384377852781007	0.0	0.7763973906912442	-0.44263375021583856	0.0	0.7757785188447022	-0.5222618463938763	0.0	0.8129401246810068	-0.5872314316404179	0.0	0.7885053623151863	-0.44133769520639654	0.0	0.785084387266042	-0.5152453504625017	0.0	0.8104593276165545	-0.5762469168540657	0.0
152	5.087955182072829	0.790681075550674	-0.5841532134894345	0.0	0.7869933034558415	-0.5825545954617242	0.0	0.7829430640523335	-0.6892115725135194	0.0	0.7638540718438993	-0.8078793650364203	0.0	0.7998840768662397	-0.8268497558524064	0.0	0.7854894069639022	-0.8305667252516591	0.0	0.7548358162733496	-0.8229780750094645	0.0	0.8002987983666527	-0.5829725661086426	0.0	0.7986198905837375	-0.6881243609164125	0.0	0.7812151046464573	-0.7959506676562985	0.0	0.8200410162891137	-0.8114003801212549	0.0	0.8167018534969297	-0.8085678509042906	0.0	0.7769803777538099	-0.8115740862278353	0.0	0.7900990293774848	-0.41948472560823485	0.0	0.8051161191353585	-0.3486975991634717	0.0	0.8246261627849327	-0.3855251319609096	0.0	0.7768032990337332	-0.44357175425509876	0.0	0.7745022123346639	-0.5233217965488803	0.0	0.807535903204248	-0.5901689176073229	0.0	0.7891061920983793	-0.4423358444128532	0.0	0.7855546417144077	-0.516399225606053	0.0	0.8089983474165848	-0.5788064089687613	0.0
153	5.121428571428571	0.791729949018856	-0.5833950396834087	0.0	0.7875759543184133	-0.5821361734470176	0.0	0.7829780252143945	-0.6886133763661565	0.0	0.7635066122589654	-0.8068280753186018	0.0	0.7992207020401538	-0.8260954864692052	0.0	0.7845481485236988	-0.829646302627438	0.0	0.7544718898497791	-0.8221308737087141	0.0	0.801433189033695	-0.5827363429831126	0.0	0.7986582522792179	-0.6877306355975915	0.0	0.7809167682226611	-0.7947971932025548	0.0	0.8194018400509533	-0.8103415497428366	0.0	0.8161214995046442	-0.8073663319754435	0.0	0.7767391261112424	-0.8104501584517921	0.0	0.790434154678185	-0.41869624888998874	0.0	0.8056777748891404	-0.3482189456807048	0.0	0.8251402051477987	-0.38510898533276533	0.0	0.7770503225898931	-0.44295288347770717	0.0	0.7727704839491645	-0.522700360054702	0.0	0.8018749602570939	-0.5912361826096735	0.0	0.7897606337992045	-0.4418389899569897	0.0	0.7861096624527285	-0.5160055080607382	0.0	0.8079305697238669	-0.5797704353144469	0.0
154	5.154901960784313	0.793108472382171	-0.5810768300802902	0.0	0.7884604050591826	-0.5801862943263594	0.0	0.7833404746207654	-0.6864662506710908	0.0	0.7632762240354939	-0.8042811690587218	0.0	0.7986387430087112	-0.8238527611160612	0.0	0.7837328005024581	-0.8272177485132888	0.0	0.754263669224067	-0.8199275231369721	0.0	0.8025570724707379	-0.5809028114549021	0.0	0.7988544499586815	-0.6856597687072767	0.0	0.7807310201344763	-0.7919528752698902	0.0	0.818548960187091	-0.8081971715469809	0.0	0.8155879112882292	-0.8050506243944552	0.0	0.7765668177616484	-0.8077695241568946	0.0	0.7907140814937744	-0.41656162579648165	0.0	0.8063664561142259	-0.3461810579776399	0.0	0.8256028099901165	-0.3832082046337484	0.0	0.777061787042638	-0.44082655598358716	0.0	0.7707961991677686	-0.5204454635958018	0.0	0.7964614654205183	-0.5903634067854635	0.0	0.79049379717041	-0.43992804301772803	0.0	0.7866589040043945	-0.5141911139616547	0.0	0.807277772820581	-0.5791309982371117	0.0
155	5.188375350140056	0.7946444268673939	-0.5774882792719876	0.0	0.7895409651081563	-0.5769082748795894	0.0	0.7839481795134327	-0.6830429042804924	0.0	0.763196824983021	-0.8004894465222089	0.0	0.7980998502690361	-0.8204079765068991	0.0	0.7830126401317703	-0.8235459546872276	0.0	0.7542228235972314	-0.8166209253867321	0.0	0.8036051659531684	-0.5776557893792651	0.0	0.799232810835801	-0.6822727574955845	0.0	0.7806557009524082	-0.7878724600657375	0.0	0.8176262772975458	-0.8052662839085449	0.0	0.8151488762516024	-0.8019076958589672	0.0	0.7764524047971751	-0.8039603489101657	0.0	0.7909385320948877	-0.41333434455702117	0.0	0.8071920466633099	-0.34283503694481077	0.0	0.826011515872668	-0.3800571281635143	0.0	0.7768431246290816	-0.4373898754337455	0.0	0.7688127583488218	-0.5167700756923856	0.0	0.7916628720450455	-0.5877339387036516	0.0	0.7912021445437469	-0.43676457035811106	0.0	0.7869877927042529	-0.511099822583325	0.0	0.8068293967436283	-0.5768968052210757	0.0
156	5.221848739495798	0.796155439360683	-0.5730007956245605	0.0	0.790701193026475	-0.5725790349763231	0.0	0.784670603493167	-0.6787975838828326	0.0	0.7632612135624774	-0.7958489729525962	0.0	0.7976962363079844	-0.8161411051689015	0.0	0.7824228876668522	-0.8190120790193998	0.0	0.7542912388256436	-0.8125772781613206	0.0	0.8045922886380582	-0.5732698510398267	0.0	0.7997107859837695	-0.6780876865362536	0.0	0.7806701951975703	-0.7831002868480104	0.0	0.816793340485668	-0.8018751396842355	0.0	0.8148310353102648	-0.79826567155995	0.0	0.7763225830788951	-0.7995322795152622	0.0	0.7910784697292115	-0.4093495765219338	0.0	0.8080811748594198	-0.33855581354547337	0.0	0.8263596501970173	-0.37604779505742286	0.0	0.7764968337517698	-0.43298401368395895	0.0	0.7669937757872646	-0.5120389243304208	0.0	0.7876810755743067	-0.5837197223758466	0.0	0.7916871965798037	-0.4326202621816864	0.0	0.7868335399607053	-0.5069260537934408	0.0	0.8062605807002791	-0.5731554382960224	0.0
157	5.255322128851541	0.7974977881079881	-0.568013654858522	0.0	0.791851666744054	-0.5675849529651172	0.0	0.7854168514495141	-0.6741975158174859	0.0	0.7634477605387766	-0.7908611003689309	0.0	0.7976153394022978	-0.8114614512906155	0.0	0.7820995059494125	-0.8141062879654842	0.0	0.7544159280537795	-0.8082224306384543	0.0	0.8055270896136307	-0.5681409629164476	0.0	0.8001731681743275	-0.6735821376351498	0.0	0.7807467222617531	-0.7781313776566002	0.0	0.8162190934765857	-0.7982944379377388	0.0	0.8146621985510585	-0.7944309799685911	0.0	0.7760984714593663	-0.7949448490274624	0.0	0.7911039875607511	-0.4049843066704861	0.0	0.8089063509976481	-0.3337979974757335	0.0	0.8266150868378103	-0.37166928002000266	0.0	0.776162627052926	-0.4280410918262554	0.0	0.7654254536047401	-0.5067264876555829	0.0	0.7846115778878731	-0.5788290668511046	0.0	0.7918173564796023	-0.4278838734309403	0.0	0.7861192172018164	-0.5019887950286249	0.0	0.8053909431744417	-0.5682311595367298	0.0
158	5.288795518207283	0.7985923261471363	-0.5629389850643364	0.0	0.7929090104006578	-0.562413825920708	0.0	0.786139199409534	-0.6696397536345962	0.0	0.7637250766385744	-0.7860146362876869	0.0	0.7979461509556571	-0.8067575560887184	0.0	0.7821523425318869	-0.8093160893391663	0.0	0.754587058664823	-0.8039498207677053	0.0	0.8063829537385319	-0.5627879613043014	0.0	0.800542342562046	-0.6691322549167391	0.0	0.7808696643750641	-0.773364600023354	0.0	0.815988195665005	-0.7947474046821439	0.0	0.8146522666306437	-0.7906681087533953	0.0	0.7757775949877034	-0.7905422470180776	0.0	0.7910017524993456	-0.4006257803185233	0.0	0.8095556014868015	-0.3290370732674875	0.0	0.8267458126486569	-0.3673924182772232	0.0	0.7759307628319804	-0.42300973095928424	0.0	0.7641451073810602	-0.5013517253756254	0.0	0.7824765094576239	-0.5736526906824702	0.0	0.7916130714377484	-0.4230126188371901	0.0	0.7850429233318266	-0.49673379260963335	0.0	0.8042937712422485	-0.562732445523788	0.0
